<?xml version="1.0" standalone="no"?>
<!DOCTYPE svg PUBLIC "-//W3C//DTD SVG 20010904//EN"
 "http://www.w3.org/TR/2001/REC-SVG-20010904/DTD/svg10.dtd">
<svg version="1.0" xmlns="http://www.w3.org/2000/svg"
 width="96.000000pt" height="96.000000pt" viewBox="0 0 96.000000 96.000000"
 preserveAspectRatio="xMidYMid meet">

<g transform="translate(0.000000,96.000000) scale(0.100000,-0.100000)"
fill="#FFDB6E" stroke="none">
<path d="M394 936 c-34 -8 -80 -24 -103 -36 l-42 -21 20 -32 c10 -18 33 -57
51 -87 18 -30 33 -56 35 -58 2 -2 24 4 49 12 129 44 271 -18 321 -139 22 -51
22 -139 0 -193 -21 -52 -99 -124 -153 -140 -201 -61 -382 121 -318 319 18 53
18 53 -6 70 l-23 18 23 30 c12 17 22 34 22 38 0 12 -134 143 -146 143 -28 0
-131 -186 -120 -215 3 -8 15 -15 27 -15 16 0 19 -4 13 -17 -4 -10 -10 -62 -12
-115 -3 -80 0 -109 17 -161 28 -82 65 -140 130 -200 180 -168 466 -161 642 15
201 200 177 535 -51 702 -105 77 -253 110 -376 82z m86 -38 c0 -32 -2 -33 -68
-50 -37 -9 -76 -20 -88 -23 -15 -5 -23 0 -32 20 -7 14 -12 27 -12 29 0 6 88
37 131 45 69 14 69 14 69 -21z m168 0 c54 -20 61 -32 38 -63 -12 -17 -16 -17
-52 -3 -22 9 -61 19 -87 23 -46 7 -47 8 -47 42 l0 34 48 -7 c26 -3 71 -15 100
-26z m157 -102 c36 -35 65 -69 65 -75 0 -6 -11 -18 -24 -26 -23 -15 -25 -14
-88 49 -62 62 -64 65 -51 90 8 14 18 26 23 26 6 0 39 -29 75 -64z m-663 -46
c-17 -23 -36 -57 -43 -77 -10 -31 -14 -34 -38 -28 -14 4 -28 8 -29 10 -11 10
14 72 50 126 l41 61 24 -25 25 -24 -30 -43z m338 45 c0 -37 -3 -45 -19 -45
-10 0 -36 -6 -58 -14 l-39 -14 -22 38 -22 38 43 16 c65 23 70 24 95 25 20 1
22 -4 22 -44z m111 29 c30 -9 58 -20 63 -24 5 -5 -1 -24 -13 -44 -22 -34 -22
-35 -56 -20 -19 8 -46 14 -60 14 -23 0 -25 4 -25 45 0 52 5 54 91 29z m152
-91 c26 -26 47 -52 47 -60 0 -7 -14 -20 -31 -29 l-31 -16 -43 42 -43 43 16 33
c8 19 21 34 27 34 6 0 32 -21 58 -47z m-521 11 l27 -27 -19 -27 c-11 -15 -24
-39 -29 -53 -9 -24 -12 -25 -50 -15 -23 6 -41 15 -41 20 0 24 63 128 79 128 2
0 17 -12 33 -26z m690 -113 c10 -29 21 -73 25 -97 l6 -44 -37 0 c-32 0 -36 3
-36 25 0 14 -9 53 -20 86 -12 34 -20 62 -18 64 15 11 45 24 53 21 5 -1 17 -26
27 -55z m-77 -43 c8 -29 15 -62 15 -75 0 -21 -5 -23 -44 -23 -42 0 -43 1 -49
38 -3 20 -9 47 -13 59 -5 18 0 26 27 42 18 11 36 18 41 15 4 -3 14 -28 23 -56z
m-708 17 c2 -1 -2 -27 -8 -58 -11 -54 -13 -57 -42 -57 l-30 0 6 55 c3 30 8 59
12 65 5 8 50 5 62 -5z m116 -5 c-1 -8 -8 -36 -14 -62 l-12 -48 -45 0 -44 0 6
38 c13 69 15 72 47 65 23 -4 29 -2 29 11 0 11 6 16 18 14 9 -2 16 -10 15 -18z
m-128 -172 c4 -24 15 -62 25 -85 l18 -42 -23 -15 c-14 -9 -28 -16 -33 -16 -13
0 -52 124 -52 165 0 32 3 35 29 35 27 0 30 -4 36 -42z m112 0 c6 -24 13 -50
17 -59 5 -12 -3 -22 -29 -38 -20 -11 -38 -21 -39 -21 -8 0 -34 77 -41 118 l-7
42 44 0 c44 0 45 0 55 -42z m620 -3 c-4 -24 -13 -61 -22 -81 l-15 -36 -32 19
c-34 20 -35 23 -22 101 l7 42 45 0 45 0 -6 -45z m90 2 c-7 -48 -34 -137 -46
-150 -8 -8 -61 11 -61 22 1 3 9 31 20 61 11 30 19 67 20 83 0 24 3 27 36 27
l37 0 -6 -43z m-634 -139 l43 -43 -19 -32 c-10 -18 -24 -33 -29 -33 -13 0
-108 94 -108 106 0 9 47 41 62 43 4 1 27 -18 51 -41z m457 27 c17 -9 30 -21
30 -28 0 -16 -89 -107 -105 -107 -6 0 -18 15 -27 33 l-16 32 41 43 c23 23 43
42 45 42 1 0 16 -7 32 -15z m-485 -191 c-19 -30 -32 -25 -99 44 -68 70 -72 78
-40 95 26 14 28 12 91 -50 63 -63 64 -65 48 -89z m576 137 l23 -19 -27 -35
c-26 -35 -108 -107 -120 -107 -4 0 -12 12 -20 26 -13 25 -11 28 47 89 34 34
64 63 67 64 4 0 17 -7 30 -18z m-390 -51 c16 0 19 -8 19 -46 l0 -47 -40 7
c-22 3 -58 13 -80 22 l-39 16 21 38 22 38 39 -14 c22 -8 48 -14 58 -14z m179
-6 c13 -20 19 -39 14 -44 -11 -10 -111 -40 -136 -40 -15 0 -18 8 -18 45 0 42
2 45 28 45 22 1 46 9 89 29 1 1 11 -15 23 -35z m-228 -92 c66 -17 68 -18 68
-50 l0 -32 -42 6 c-40 6 -146 39 -155 47 -2 3 2 17 9 31 9 21 17 26 32 21 12
-3 51 -14 88 -23z m278 9 c5 -11 10 -24 10 -30 0 -13 -93 -47 -152 -55 l-48
-7 0 34 c0 34 1 35 48 42 26 4 61 13 77 20 42 19 53 18 65 -4z"/>
<path d="M440 668 c-84 -24 -140 -99 -140 -188 0 -146 151 -240 281 -174 55
28 109 113 109 174 0 60 -53 146 -109 174 -38 20 -101 26 -141 14z m95 -19
c55 -14 111 -69 126 -122 44 -164 -152 -289 -281 -181 -43 37 -60 75 -60 134
0 81 41 138 117 165 47 17 45 17 98 4z"/>
<path d="M462 563 c-57 -82 -65 -131 -27 -168 70 -71 172 16 124 107 -18 36
-59 88 -69 88 -5 0 -17 -12 -28 -27z m67 -52 c28 -51 30 -90 5 -108 -42 -30
-104 -4 -104 45 0 29 50 113 65 109 6 -2 21 -23 34 -46z"/>
</g>
</svg>
